<svg width="400" height="400" viewBox="0 0 400 400" fill="none" xmlns="http://www.w3.org/2000/svg">
<mask id="mask0" mask-type="alpha" maskUnits="userSpaceOnUse" x="4" y="0" width="396" height="400">
<path d="M4.30762 0.359558L400 0.359558L400 400L4.30762 400L4.30762 0.359558Z" fill="white"/>
</mask>
<g mask="url(#mask0)">
<path d="M400 200.18C400 310.536 311.42 400 202.154 400C92.8877 400 4.30762 310.536 4.30762 200.18C4.30762 89.8235 92.8877 0.359558 202.154 0.359558C311.42 0.359558 400 89.8235 400 200.18Z" fill="url(#paint0_radial)" fill-opacity="0.8"/>
</g>
<mask id="mask1" mask-type="alpha" maskUnits="userSpaceOnUse" x="0" y="0" width="396" height="400">
<path d="M197.846 -6.10352e-05C88.5801 -6.10352e-05 0 89.4639 0 199.82C0 310.176 88.5801 399.64 197.846 399.64C307.112 399.64 395.692 310.176 395.692 199.82C395.692 89.4639 307.112 -6.10352e-05 197.846 -6.10352e-05Z" fill="white"/>
</mask>
<g mask="url(#mask1)">
<path d="M84.4968 20.8147C62.5139 16.6517 13.0524 47.8792 4.12731 58.2809C-4.80874 68.6827 -26.7917 122.112 -30.9134 139.463C-35.0352 156.803 -23.3623 231.037 -20.6145 253.239C-17.8666 275.441 13.7448 314.295 23.3624 308.744C32.9799 303.194 31.6059 292.792 30.9135 281.691C30.232 270.59 30.232 268.503 30.232 255.326C30.232 242.138 36.4092 244.225 42.5864 237.975C48.7746 231.736 47.4007 231.037 57.6997 224.198C68.0096 217.36 62.5139 209.534 61.8214 205.371C61.14 201.208 54.9518 204.671 44.6528 206.059C34.3538 207.447 37.7831 202.596 31.6059 199.82C25.4178 197.045 22.6699 192.882 18.5481 180.393C14.4263 167.905 13.7448 164.441 15.1188 154.028C16.4927 143.626 21.296 153.34 21.9884 164.441C22.6699 175.542 32.2874 171.379 32.2874 178.317C32.2874 185.256 46.0267 192.882 49.4561 194.969C52.8964 197.045 62.5139 184.556 65.9542 181.093C69.3836 177.618 73.5054 172.767 74.8793 169.992C76.2532 167.216 93.4219 165.129 96.8622 165.129C100.292 165.129 108.546 175.542 108.546 180.393C108.546 185.256 112.668 198.433 116.097 206.059C119.538 213.697 127.089 215.084 133.958 220.635C140.828 226.185 144.257 221.323 144.257 221.323C144.257 221.323 141.51 209.534 141.51 199.82C141.51 190.107 149.753 181.781 149.753 181.781C149.753 181.781 162.811 191.494 163.492 194.27C164.185 197.045 174.495 206.758 175.176 211.61C175.869 216.472 181.365 222.711 191.477 224.098C201.6 225.486 194.411 212.309 197.852 203.284C201.281 194.27 206.095 192.882 212.272 191.494C218.461 190.107 223.264 184.556 227.386 179.006C231.508 173.455 239.07 165.829 238.377 159.579C237.696 153.34 235.629 149.177 232.881 141.539C230.134 133.913 241.125 131.138 245.939 122.112C250.743 113.098 245.939 122.112 256.931 119.337C267.911 116.562 263.108 116.562 265.163 112.399C267.23 108.236 268.604 104.073 266.537 96.4355C264.482 88.809 256.931 96.4355 249.369 96.4355C241.818 96.4355 252.117 86.0338 252.809 77.7079C253.49 69.382 263.108 71.458 269.978 70.7697C276.847 70.0703 278.903 79.7838 280.969 81.8708C283.024 83.9467 304.326 67.9944 309.822 60.368C315.317 52.7304 305.007 54.8174 307.755 51.5981C310.503 48.3788 291.268 47.7238 283.717 46.4915C276.155 45.2482 256.931 44.4045 249.369 39.6977C241.818 34.9797 212.965 38.532 205.403 42.3175C197.852 46.1141 193.037 42.0067 189.608 36.767C186.168 31.5383 171.736 34.1582 167.614 31.2164C163.492 28.2857 159.371 36.0787 153.875 38.1546C148.379 40.2416 146.324 40.9299 139.454 36.767C132.584 32.6041 141.51 27.7529 131.892 24.2782C122.285 20.8147 110.052 25.6548 84.4968 20.8147ZM175.176 236.593C175.176 244.219 169.681 252.545 175.176 260.183C180.672 267.82 185.475 267.82 190.29 268.508C195.093 269.208 208.843 268.508 197.852 259.494C186.849 250.469 180.672 257.407 182.046 246.994C183.42 236.593 175.176 236.593 175.176 236.593ZM252.116 125.581C252.116 133.208 246.621 141.534 252.116 149.171C257.612 156.809 241.125 163.048 245.939 163.747C250.743 164.435 271.352 161.66 260.36 152.646C249.369 143.621 257.612 146.396 258.986 135.983C260.36 125.581 252.116 125.581 252.116 125.581ZM202.005 247C196.543 257.402 210.897 253.239 217.712 260.876C224.527 268.503 221.889 260.876 230.825 257.402C239.75 253.938 223.263 246.312 217.767 242.149C212.271 237.986 206.809 237.83 202.005 247ZM245.247 252.648C237.146 248.43 242.499 258.099 245.247 268.701C247.995 279.302 258.294 271.287 267.922 276.838C277.54 282.388 278.221 274.751 287.157 277.526C296.082 280.301 299.512 286.551 308.085 285.852C316.647 285.163 301.578 278.914 298.138 274.751C294.708 270.588 287.157 268.512 278.914 268.701C270.67 268.9 271.352 259.487 263.108 260.186C254.864 260.874 248.973 254.591 245.247 252.648ZM172.734 305.281C162.864 314.983 168.304 308.744 172.734 314.994C177.164 321.233 167.876 340.671 167.194 351.761C166.502 362.862 184.792 348.298 191.661 346.91C198.531 345.522 196.509 341.36 202.004 337.197C207.5 333.034 211.072 332.057 217.107 337.607C223.13 343.158 231.044 348.298 231.044 354.537C231.044 360.787 252.807 371.188 261.05 367.025C269.294 362.862 274.097 354.537 281.659 347.61C289.21 340.671 286.463 327.483 288.529 319.157C290.584 310.831 283.715 312.219 280.285 305.281C276.845 298.343 266.81 292.082 262.688 288.574C258.566 285.066 252.114 283.867 246.619 285.909C241.123 287.952 237.694 285.909 234.946 280.414C232.198 274.919 227.384 276.829 223.262 277.528C219.14 278.216 202.653 285.166 193.035 290.017C183.418 294.879 179.043 299.086 172.734 305.281Z" fill="#5C913B" fill-opacity="0.8"/>
</g>
<defs>
<radialGradient id="paint0_radial" cx="0" cy="0" r="1" gradientUnits="userSpaceOnUse" gradientTransform="translate(180.769 290.722) scale(132.725 134.05)">
<stop stop-color="#CEE8FC"/>
<stop offset="1" stop-color="#88C9F9"/>
</radialGradient>
</defs>
</svg>
