<svg width="74" height="19" viewBox="0 0 74 19" fill="none" xmlns="http://www.w3.org/2000/svg">
<path d="M13.293 3.73828L13.1875 3.86719C12.1172 5.07812 11.5117 6.41406 11.3711 7.875V7.94531L11.3008 8.01562C10.7383 8.72656 10.3125 9.44531 10.0234 10.1719C9.73438 10.8984 9.56641 11.6523 9.51953 12.4336V12.5273L9.44922 12.5977C8.88672 13.2383 8.44922 13.9297 8.13672 14.6719C7.82422 15.4141 7.64453 16.2109 7.59766 17.0625V17.1797L7.50391 17.2617C7.49609 17.2773 7.46094 17.3086 7.39844 17.3555C7.34375 17.4023 7.25781 17.4531 7.14062 17.5078C7.03125 17.5547 6.89453 17.6016 6.73047 17.6484C6.56641 17.6875 6.375 17.707 6.15625 17.707C5.97656 17.707 5.77734 17.6875 5.55859 17.6484C5.34766 17.6094 5.11719 17.5352 4.86719 17.4258C4.42969 17.2539 4.09375 17.0547 3.85938 16.8281C3.63281 16.6016 3.46484 16.3867 3.35547 16.1836C3.25391 15.9805 3.19531 15.8047 3.17969 15.6562C3.16406 15.5078 3.15625 15.4258 3.15625 15.4102L3.26172 15.1875C3.81641 14.625 4.26172 13.9922 4.59766 13.2891C4.93359 12.5859 5.17578 11.7969 5.32422 10.9219V10.8984C5.19922 10.6797 5.05859 10.4531 4.90234 10.2188C4.74609 9.98438 4.57812 9.75781 4.39844 9.53906C4.22656 9.32031 4.04688 9.12109 3.85938 8.94141C3.67969 8.75391 3.49609 8.59766 3.30859 8.47266L3.22656 8.42578L3.20312 8.30859C2.96094 7.51953 2.62109 6.81641 2.18359 6.19922C1.75391 5.57422 1.20703 5.01953 0.542969 4.53516L0.425781 4.44141V4.30078C0.425781 4.32422 0.441406 4.27734 0.472656 4.16016C0.496094 4.03516 0.546875 3.87891 0.625 3.69141C0.695312 3.50391 0.796875 3.29688 0.929688 3.07031C1.0625 2.84375 1.23438 2.63672 1.44531 2.44922C1.66406 2.25391 1.92578 2.08984 2.23047 1.95703C2.53516 1.82422 2.89453 1.75781 3.30859 1.75781C3.46484 1.75781 3.58984 1.76953 3.68359 1.79297C3.78516 1.81641 3.84375 1.82812 3.85938 1.82812L4 1.875L4.04688 2.01562C4.57031 3.53125 5.41797 4.72266 6.58984 5.58984L6.68359 5.73047C6.73828 5.86328 6.79297 6.00781 6.84766 6.16406C6.91016 6.3125 6.98438 6.45703 7.07031 6.59766C7.07031 6.57422 7.07422 6.55078 7.08203 6.52734C7.08984 6.50391 7.09375 6.47266 7.09375 6.43359V6.33984L7.16406 6.26953C7.75 5.66016 8.19922 5.01172 8.51172 4.32422C8.82422 3.63672 9.02344 2.88281 9.10938 2.0625V1.89844L9.26172 1.82812C9.27734 1.8125 9.36719 1.77344 9.53125 1.71094C9.70312 1.64062 9.94922 1.60547 10.2695 1.60547C10.6523 1.60547 10.9922 1.65625 11.2891 1.75781C11.5859 1.85156 11.8438 1.97656 12.0625 2.13281C12.2891 2.28125 12.4766 2.44141 12.625 2.61328C12.7812 2.78516 12.9062 2.94531 13 3.09375C13.0938 3.24219 13.1602 3.36719 13.1992 3.46875C13.2461 3.5625 13.2695 3.60547 13.2695 3.59766L13.293 3.73828ZM23.3331 12.1641L23.2863 12.2695C22.9972 13.0664 22.8527 13.8242 22.8527 14.543C22.8527 14.8945 22.8839 15.2461 22.9464 15.5977C23.0167 15.9492 23.1183 16.3242 23.2511 16.7227L23.3097 16.8516L23.2511 16.9453C23.2433 16.9609 23.2003 17.0312 23.1222 17.1562C23.0441 17.2734 22.9152 17.4023 22.7355 17.543C22.5558 17.6836 22.3136 17.8125 22.0089 17.9297C21.7042 18.0391 21.3214 18.0938 20.8605 18.0938C20.3995 18.0938 20.0167 18.0352 19.712 17.918C19.4152 17.793 19.1808 17.6562 19.0089 17.5078C18.837 17.3516 18.7159 17.2109 18.6456 17.0859C18.5753 16.9609 18.5363 16.8906 18.5284 16.875L18.4816 16.7578L18.5284 16.6523C18.7081 16.2227 18.8409 15.8047 18.9269 15.3984C19.0128 14.9922 19.0558 14.5781 19.0558 14.1562C19.0558 13.8672 19.0363 13.5703 18.9972 13.2656C18.9659 12.9531 18.9073 12.6211 18.8214 12.2695V12.1172C18.9308 11.7188 19.0089 11.3438 19.0558 10.9922C19.1027 10.6406 19.1261 10.2969 19.1261 9.96094C19.1261 9.25 19.005 8.53125 18.7628 7.80469L18.7159 7.69922L18.7628 7.60547C18.9347 7.18359 19.0558 6.76172 19.1261 6.33984C19.2042 5.91016 19.2511 5.48438 19.2667 5.0625H19.1495C18.3527 5.0625 17.5597 5.20703 16.7706 5.49609L16.6769 5.51953L16.5597 5.47266C16.5441 5.47266 16.4738 5.4375 16.3488 5.36719C16.2238 5.29688 16.0831 5.17578 15.9269 5.00391C15.7784 4.83203 15.6456 4.60156 15.5284 4.3125C15.4034 4.01562 15.3409 3.64062 15.3409 3.1875C15.3409 2.76562 15.3995 2.42188 15.5167 2.15625C15.6339 1.88281 15.7628 1.66797 15.9034 1.51172C16.0519 1.34766 16.1847 1.23438 16.3019 1.17188C16.4269 1.10156 16.4972 1.0625 16.5128 1.05469L16.6066 1.00781L16.7238 1.05469C17.0675 1.17969 17.4113 1.26953 17.755 1.32422C18.0988 1.37109 18.4542 1.39453 18.8214 1.39453C19.1495 1.39453 19.5011 1.38281 19.8761 1.35938C20.2589 1.32812 20.6183 1.25 20.9542 1.125L21.048 1.07812L21.1417 1.125C21.5402 1.25781 21.9152 1.35547 22.2667 1.41797C22.6261 1.48047 22.9816 1.51172 23.3331 1.51172C23.9659 1.51172 24.6613 1.39062 25.4191 1.14844L25.5597 1.10156L25.6769 1.19531C25.6847 1.20312 25.7355 1.24609 25.8292 1.32422C25.923 1.40234 26.0206 1.52344 26.1222 1.6875C26.2316 1.84375 26.3292 2.04688 26.4152 2.29688C26.5089 2.53906 26.5597 2.82812 26.5675 3.16406C26.5675 3.51562 26.5245 3.82422 26.4386 4.08984C26.3527 4.34766 26.255 4.56641 26.1456 4.74609C26.0441 4.91797 25.9464 5.05078 25.8527 5.14453C25.7589 5.23047 25.7081 5.28516 25.7003 5.30859L25.5831 5.40234L25.4191 5.35547C25.0206 5.23047 24.6534 5.14453 24.3175 5.09766C23.9894 5.04297 23.6613 5.01562 23.3331 5.01562H22.9933C22.9777 5.125 22.9738 5.23047 22.9816 5.33203C22.9894 5.42578 22.9933 5.51953 22.9933 5.61328C22.9933 5.94141 23.0128 6.26172 23.0519 6.57422C23.0988 6.88672 23.1652 7.19922 23.2511 7.51172V7.65234C23.1339 8.08984 23.0441 8.49219 22.9816 8.85938C22.9269 9.22656 22.8995 9.58594 22.8995 9.9375C22.8995 10.2969 22.9308 10.6484 22.9933 10.9922C23.0558 11.3359 23.1534 11.6953 23.2863 12.0703L23.3331 12.1641ZM41.4709 8.51953L41.4475 8.66016L41.3069 8.73047C40.7991 8.94922 40.3342 9.19531 39.9123 9.46875C39.4983 9.73438 39.1233 10.043 38.7873 10.3945C38.9202 10.7539 39.092 11.0781 39.303 11.3672C39.5139 11.6484 39.7913 11.9492 40.135 12.2695L40.2053 12.3867C40.3381 13.0586 40.5569 13.668 40.8616 14.2148C41.1741 14.7617 41.5959 15.2617 42.1272 15.7148L42.2209 15.7734V15.8906C42.2209 15.9062 42.2131 15.9805 42.1975 16.1133C42.1897 16.2461 42.1428 16.4102 42.0569 16.6055C41.9788 16.8008 41.8459 17.0117 41.6584 17.2383C41.4709 17.4648 41.2014 17.6797 40.8498 17.8828C40.5764 18.0391 40.3186 18.1445 40.0764 18.1992C39.842 18.2617 39.635 18.293 39.4553 18.293C39.2913 18.293 39.1467 18.2773 39.0217 18.2461C38.8967 18.2148 38.7913 18.1797 38.7053 18.1406C38.6194 18.1016 38.553 18.0664 38.5061 18.0352C38.4592 18.0039 38.4319 17.9844 38.4241 17.9766L38.3538 17.9297L38.3303 17.8125C38.2913 17.5078 38.2288 17.2227 38.1428 16.957C38.0647 16.6914 37.9631 16.4336 37.8381 16.1836C37.7131 15.9336 37.5647 15.6875 37.3928 15.4453C37.2288 15.2031 37.0452 14.957 36.842 14.707C36.7639 14.6289 36.7092 14.582 36.678 14.5664L36.6077 14.4961V14.4023C36.5452 14.0352 36.4709 13.7109 36.385 13.4297C36.3069 13.1406 36.1975 12.8711 36.0569 12.6211C35.7288 12.8633 35.4123 13.1328 35.1077 13.4297C34.8108 13.7266 34.5413 14.0352 34.2991 14.3555C34.2834 14.418 34.2795 14.4766 34.2873 14.5312C34.2952 14.5859 34.2991 14.6445 34.2991 14.707C34.2991 15.1211 34.3303 15.5273 34.3928 15.9258C34.4553 16.3164 34.5608 16.7109 34.7092 17.1094L34.7561 17.2031L34.7092 17.332C34.7014 17.3477 34.6584 17.418 34.5803 17.543C34.5022 17.6602 34.3733 17.7891 34.1936 17.9297C34.0139 18.0703 33.7678 18.1953 33.4553 18.3047C33.1506 18.4219 32.7678 18.4805 32.3069 18.4805C31.8459 18.4805 31.4631 18.418 31.1584 18.293C30.8616 18.1758 30.6233 18.043 30.4436 17.8945C30.2717 17.7383 30.1506 17.5977 30.0803 17.4727C30.01 17.3477 29.9748 17.2773 29.9748 17.2617L29.928 17.1328L29.9748 17.0391C30.1545 16.6016 30.2873 16.1602 30.3733 15.7148C30.4592 15.2617 30.5022 14.793 30.5022 14.3086C30.5022 13.9805 30.4827 13.6523 30.4436 13.3242C30.4123 12.9883 30.3538 12.6445 30.2678 12.293V12.1406C30.3616 11.7578 30.4358 11.3789 30.4905 11.0039C30.553 10.6211 30.5842 10.25 30.5842 9.89062C30.5842 9.46875 30.5491 9.05859 30.4788 8.66016C30.4084 8.26172 30.3147 7.86328 30.1975 7.46484L30.1741 7.37109L30.2209 7.27734C30.5569 6.41797 30.7248 5.55859 30.7248 4.69922C30.7248 4.34766 30.6975 4.00391 30.6428 3.66797C30.5959 3.33203 30.5178 2.98828 30.4084 2.63672L30.3616 2.49609L30.4553 2.37891C30.4631 2.37109 30.4944 2.33984 30.5491 2.28516C30.6038 2.22266 30.6858 2.15234 30.7952 2.07422C30.9045 1.98828 31.0452 1.90625 31.217 1.82812C31.3889 1.74219 31.592 1.67578 31.8264 1.62891C31.9748 1.39453 32.1428 1.21094 32.3303 1.07812C32.5178 0.9375 32.6936 0.832031 32.8577 0.761719C33.0295 0.691406 33.1741 0.644531 33.2913 0.621094C33.4163 0.597656 33.4866 0.582031 33.5022 0.574219H33.6311L33.7248 0.644531C33.9514 0.847656 34.2014 1.04297 34.4748 1.23047C34.7483 1.41797 35.0373 1.58203 35.342 1.72266C35.6467 1.86328 35.967 1.97656 36.303 2.0625C36.6389 2.14062 36.9866 2.17969 37.3459 2.17969L37.5452 2.26172C37.8577 2.53516 38.1545 2.76953 38.4358 2.96484C38.7248 3.15234 39.0217 3.30859 39.3264 3.43359C39.6311 3.55859 39.9514 3.65625 40.2873 3.72656C40.6233 3.79688 40.9944 3.84375 41.4006 3.86719L41.553 3.89062L41.6467 4.00781C41.6467 4.02344 41.6584 4.05859 41.6819 4.11328C41.7131 4.16797 41.7444 4.24609 41.7756 4.34766C41.8069 4.44141 41.8342 4.55859 41.8577 4.69922C41.8889 4.83203 41.9045 4.98438 41.9045 5.15625C41.9045 5.3125 41.8889 5.48047 41.8577 5.66016C41.8342 5.83984 41.7873 6.03125 41.717 6.23438C41.6077 6.55469 41.4709 6.82031 41.3069 7.03125C41.3928 7.23438 41.4475 7.42578 41.4709 7.60547C41.5022 7.77734 41.5178 7.92969 41.5178 8.0625C41.5178 8.19531 41.51 8.30078 41.4944 8.37891C41.4788 8.45703 41.4709 8.50391 41.4709 8.51953ZM36.1741 6.38672L36.0217 6.33984C35.7248 6.16797 35.4475 6.00781 35.1897 5.85938C34.9319 5.70312 34.6819 5.56641 34.4397 5.44922C34.4397 5.73828 34.4631 6.02734 34.51 6.31641C34.5569 6.59766 34.6233 6.88281 34.7092 7.17188V7.34766C34.5139 8.00391 34.3928 8.64453 34.3459 9.26953C34.4709 9.14453 34.5842 9.01953 34.6858 8.89453C34.7952 8.76953 34.8811 8.65234 34.9436 8.54297L35.1194 8.40234C35.635 8.20703 36.1155 7.97266 36.5608 7.69922C37.0139 7.41797 37.428 7.08203 37.803 6.69141C37.3186 6.53516 36.7756 6.43359 36.1741 6.38672ZM57.4642 11.8828C57.5111 12.1406 57.5345 12.3789 57.5345 12.5977C57.5345 12.8398 57.5111 13.0586 57.4642 13.2539C57.4173 13.4414 57.3627 13.6055 57.3002 13.7461C57.2455 13.8789 57.1908 13.9883 57.1361 14.0742C57.0892 14.1523 57.0619 14.1953 57.0541 14.2031L56.9603 14.332L56.7962 14.3086C56.6869 14.293 56.5775 14.2852 56.4681 14.2852C56.3587 14.2852 56.2494 14.2852 56.14 14.2852C56.2494 14.668 56.3861 15.0391 56.5502 15.3984C56.7142 15.7578 56.8978 16.1055 57.1009 16.4414L57.2298 16.6289L57.0775 16.8047C57.0697 16.8125 57.0267 16.8555 56.9486 16.9336C56.8783 17.0039 56.7689 17.0898 56.6205 17.1914C56.472 17.2852 56.2806 17.3867 56.0462 17.4961C55.8197 17.6055 55.5502 17.6953 55.2377 17.7656C55.0892 17.8047 54.9408 17.8359 54.7923 17.8594C54.6517 17.875 54.5111 17.8828 54.3705 17.8828C54.1673 17.8828 53.9798 17.8672 53.808 17.8359C53.6439 17.8047 53.5033 17.7695 53.3861 17.7305C53.2689 17.6836 53.1752 17.6445 53.1048 17.6133C53.0423 17.582 53.0072 17.5664 52.9994 17.5664L52.8353 17.4727L52.8587 17.2852C52.8587 17.1836 52.8627 17.0859 52.8705 16.9922C52.8783 16.8984 52.8822 16.8008 52.8822 16.6992C52.8822 16.1602 52.8353 15.625 52.7416 15.0938C52.7103 15.125 52.683 15.1406 52.6595 15.1406L52.4955 15.1875C52.0033 15.1875 51.4994 15.2188 50.9837 15.2812C50.4681 15.3438 49.9564 15.457 49.4486 15.6211V15.9844C49.4486 16.3203 49.472 16.6562 49.5189 16.9922L49.5423 17.1094L49.472 17.2031C49.4642 17.2109 49.4252 17.2539 49.3548 17.332C49.2845 17.4102 49.1752 17.4961 49.0267 17.5898C48.8783 17.6836 48.6908 17.7695 48.4642 17.8477C48.2377 17.918 47.9642 17.9531 47.6439 17.9531C47.0189 17.9531 46.5228 17.8633 46.1556 17.6836C45.7962 17.5039 45.5189 17.3008 45.3236 17.0742C45.097 16.8164 44.9447 16.5234 44.8666 16.1953L44.8431 16.1016L44.9134 16.0078C45.3119 15.3984 45.6048 14.75 45.7923 14.0625C45.9877 13.3672 46.0853 12.6172 46.0853 11.8125V11.4023L46.1322 11.2617C46.4369 10.6523 46.6595 10.0469 46.8002 9.44531C46.9486 8.83594 47.0228 8.22266 47.0228 7.60547C47.0228 7.44922 47.0189 7.29297 47.0111 7.13672C47.0033 6.98047 46.9916 6.82422 46.9759 6.66797L46.9525 6.55078L47.0228 6.45703C47.7728 5.30859 48.1478 4.06641 48.1478 2.73047C48.1478 2.61328 48.1439 2.49219 48.1361 2.36719C48.1283 2.23438 48.1166 2.10156 48.1009 1.96875V1.82812L48.2064 1.72266C48.2142 1.71484 48.2533 1.6875 48.3236 1.64062C48.4017 1.58594 48.5072 1.53125 48.64 1.47656C48.7728 1.41406 48.933 1.35938 49.1205 1.3125C49.3158 1.26562 49.5384 1.24219 49.7884 1.24219C50.2728 1.24219 50.683 1.31641 51.0189 1.46484C51.3627 1.61328 51.64 1.77734 51.8509 1.95703C52.0619 2.13672 52.2142 2.30078 52.308 2.44922C52.4095 2.59766 52.4642 2.67578 52.472 2.68359L52.5423 2.83594L52.472 2.97656C52.4408 3.00781 52.4252 3.03125 52.4252 3.04688H52.5892C52.933 3.04688 53.2025 3.07031 53.3978 3.11719C53.6009 3.16406 53.7103 3.1875 53.7259 3.1875L53.8666 3.29297L53.8431 3.45703C53.8275 3.55078 53.8197 3.64453 53.8197 3.73828C53.8197 3.82422 53.8197 3.91406 53.8197 4.00781C53.8197 5.39844 54.1478 6.67188 54.8041 7.82812L54.8509 7.96875V8.28516C54.8509 8.69141 54.8666 9.08203 54.8978 9.45703C54.9291 9.82422 54.9916 10.1758 55.0853 10.5117C55.2416 10.4492 55.3939 10.3828 55.5423 10.3125C55.6908 10.2422 55.8353 10.1641 55.9759 10.0781L56.0931 10.0078L56.2455 10.0547C56.2533 10.0625 56.3041 10.0977 56.3978 10.1602C56.4994 10.2227 56.6127 10.3242 56.7377 10.4648C56.8705 10.6055 57.0033 10.793 57.1361 11.0273C57.2767 11.2539 57.3861 11.5391 57.4642 11.8828ZM51.1478 8.88281L50.9837 8.33203C50.8041 8.80078 50.6712 9.26562 50.5853 9.72656C50.4994 10.1875 50.4564 10.6406 50.4564 11.0859V11.4023C50.7923 11.2852 51.1127 11.1484 51.4173 10.9922L51.6048 10.9453C51.6595 10.9609 51.7142 10.9727 51.7689 10.9805C51.8236 10.9883 51.8744 10.9922 51.9212 10.9922C51.8353 10.6562 51.7259 10.3164 51.5931 9.97266C51.4681 9.62109 51.3197 9.25781 51.1478 8.88281ZM73.6802 2.26172L73.6333 2.40234C73.4927 2.83984 73.3794 3.26562 73.2934 3.67969C73.2153 4.09375 73.1763 4.50781 73.1763 4.92188C73.1763 5.23438 73.1997 5.54688 73.2466 5.85938C73.3013 6.16406 73.3755 6.47656 73.4692 6.79688V6.96094C73.227 7.78906 73.1059 8.59766 73.1059 9.38672C73.1059 9.79297 73.1372 10.1875 73.1997 10.5703C73.2622 10.9531 73.3598 11.332 73.4927 11.707V11.9062C73.3364 12.3125 73.2192 12.7227 73.1411 13.1367C73.0708 13.5508 73.0356 13.9648 73.0356 14.3789C73.0356 15.168 73.1723 15.9492 73.4458 16.7227L73.4927 16.8516L73.4458 16.9453C73.438 16.9609 73.395 17.0312 73.3169 17.1562C73.2388 17.2734 73.1098 17.4023 72.9302 17.543C72.7505 17.6836 72.5083 17.8125 72.2036 17.9297C71.8989 18.0391 71.52 18.0938 71.0669 18.0938C70.6919 18.0938 70.3716 18.0586 70.1059 17.9883C69.8403 17.9102 69.6177 17.8086 69.438 17.6836H69.3208C69.1098 17.6836 68.9223 17.6641 68.7583 17.625C68.5942 17.5781 68.4575 17.5312 68.3481 17.4844C68.2388 17.4297 68.1528 17.3789 68.0903 17.332C68.0356 17.2773 68.0044 17.2422 67.9966 17.2266L67.9028 17.1562V17.0391C67.8638 16.2422 67.6997 15.4805 67.4106 14.7539C67.1216 14.0273 66.6997 13.3086 66.145 12.5977L66.0981 12.4805C66.0044 11.9492 65.8716 11.4492 65.6997 10.9805C65.5356 10.5117 65.3325 10.0586 65.0903 9.62109C65.1059 9.98828 65.1411 10.3438 65.1958 10.6875C65.2583 11.0312 65.352 11.3711 65.477 11.707L65.5239 11.8125L65.477 11.9062C65.3286 12.3047 65.2192 12.707 65.1489 13.1133C65.0786 13.5117 65.0434 13.918 65.0434 14.332C65.0434 14.7383 65.0747 15.1406 65.1372 15.5391C65.1997 15.9297 65.3052 16.3242 65.4536 16.7227L65.5005 16.8516L65.4536 16.9453C65.4458 16.9609 65.4028 17.0312 65.3247 17.1562C65.2466 17.2734 65.1177 17.4023 64.938 17.543C64.7583 17.6836 64.5122 17.8125 64.1997 17.9297C63.895 18.0391 63.5122 18.0938 63.0513 18.0938C62.5903 18.0938 62.2075 18.0352 61.9028 17.918C61.6059 17.793 61.3677 17.6562 61.188 17.5078C61.0161 17.3516 60.895 17.2109 60.8247 17.0859C60.7544 16.9609 60.7192 16.8906 60.7192 16.875L60.6723 16.7578L60.7192 16.6523C60.8989 16.2227 61.0317 15.7812 61.1177 15.3281C61.2036 14.875 61.2466 14.4062 61.2466 13.9219C61.2466 13.5938 61.227 13.2656 61.188 12.9375C61.1567 12.6016 61.0981 12.2578 61.0122 11.9062V11.7656C61.1059 11.375 61.1802 10.9922 61.2348 10.6172C61.2973 10.2344 61.3286 9.86328 61.3286 9.50391C61.3286 9.08203 61.2934 8.67188 61.2231 8.27344C61.1528 7.875 61.0591 7.47656 60.9419 7.07812L60.9184 6.98438L60.9653 6.89062C61.3013 6.03125 61.4692 5.17578 61.4692 4.32422C61.4692 3.98047 61.4419 3.64453 61.3872 3.31641C61.3403 2.98047 61.2622 2.63672 61.1528 2.28516L61.1059 2.13281L61.1997 2.01562C61.2075 2.00781 61.2544 1.96094 61.3403 1.875C61.4263 1.78125 61.5552 1.68359 61.727 1.58203C61.9067 1.47266 62.1294 1.37891 62.395 1.30078C62.6606 1.21484 62.977 1.17188 63.3442 1.17188C63.6958 1.17188 63.9966 1.21484 64.2466 1.30078C64.5044 1.37891 64.7231 1.47266 64.9028 1.58203H65.0903C65.4184 1.58203 65.6802 1.62109 65.8755 1.69922C66.0708 1.76953 66.1763 1.8125 66.1919 1.82812L66.3442 1.89844L66.3677 2.03906C66.5317 3.64844 67.0903 5 68.0434 6.09375L68.1138 6.16406V6.23438C68.3169 7.51562 68.7192 8.62109 69.3208 9.55078V9.52734C69.3208 9.10547 69.2895 8.69531 69.227 8.29688C69.1645 7.89844 69.0747 7.49219 68.9575 7.07812V6.89062C69.2934 6.03125 69.4614 5.16016 69.4614 4.27734C69.4614 3.60547 69.3638 2.94141 69.1684 2.28516L69.1216 2.13281L69.2153 2.01562C69.2231 2.00781 69.27 1.96094 69.3559 1.875C69.4419 1.78125 69.5708 1.68359 69.7427 1.58203C69.9223 1.47266 70.145 1.37891 70.4106 1.30078C70.6763 1.21484 70.9927 1.17188 71.3598 1.17188C71.727 1.17188 72.0473 1.22266 72.3208 1.32422C72.5942 1.41797 72.8247 1.52344 73.0122 1.64062C73.1997 1.75781 73.3403 1.86719 73.4341 1.96875C73.5278 2.07031 73.5786 2.125 73.5864 2.13281L73.6802 2.26172Z" fill="#E2E5F3"/>
</svg>
